<svg width="140" height="50" viewBox="0 0 140 50" fill="none" xmlns="http://www.w3.org/2000/svg">
<path d="M9.70898 5.95215C14.5449 5.95228 18.4648 9.87306 18.4648 14.709V23.4648H9.70898C4.87306 23.4648 0.952281 19.5449 0.952148 14.709V5.95215H9.70898Z" stroke="#3A77AD" stroke-width="1.90476"/>
<path d="M20.5824 14.7087C20.5824 9.34675 24.9292 5 30.2912 5H39.9999V14.7087C39.9999 20.0707 35.6532 24.4175 30.2912 24.4175H20.5824V14.7087Z" fill="#3A77AD"/>
<path d="M0 35.2913C0 29.9293 4.34675 25.5825 9.70874 25.5825H19.4175V35.2913C19.4175 40.6532 15.0707 45 9.70874 45H0V35.2913Z" fill="#3A77AD"/>
<path d="M30.2914 26.5347C35.1273 26.5348 39.0473 30.4556 39.0473 35.2915V44.0474H30.2914C25.4555 44.0474 21.5347 40.1274 21.5346 35.2915V26.5347H30.2914Z" stroke="#3A77AD" stroke-width="1.90476"/>
<path d="M64.881 44V28.6H68.137V44H64.881ZM71.5659 44V32.89H74.7779V34.32C75.0566 33.924 75.3792 33.5977 75.7459 33.341C76.1199 33.077 76.5159 32.8827 76.9339 32.758C77.3592 32.626 77.7846 32.56 78.2099 32.56C79.0532 32.56 79.7719 32.7507 80.3659 33.132C80.9672 33.506 81.3816 34.001 81.6089 34.617C82.0782 33.8837 82.6796 33.3593 83.4129 33.044C84.1462 32.7213 84.9126 32.56 85.7119 32.56C86.7752 32.56 87.6149 32.7653 88.2309 33.176C88.8469 33.5793 89.2832 34.1037 89.5399 34.749C89.8039 35.3943 89.9359 36.0727 89.9359 36.784V44H86.7239V37.708C86.7239 37.0407 86.5442 36.5017 86.1849 36.091C85.8329 35.6803 85.3122 35.475 84.6229 35.475C84.1902 35.475 83.8016 35.5703 83.4569 35.761C83.1122 35.9517 82.8409 36.2083 82.6429 36.531C82.4522 36.8463 82.3569 37.2093 82.3569 37.62V44H79.1449V37.708C79.1449 37.0407 78.9652 36.5017 78.6059 36.091C78.2466 35.6803 77.7259 35.475 77.0439 35.475C76.6039 35.475 76.2116 35.5703 75.8669 35.761C75.5296 35.9517 75.2619 36.2083 75.0639 36.531C74.8732 36.8463 74.7779 37.2093 74.7779 37.62V44H71.5659ZM92.9429 48.62V32.89H95.7369V34.254C96.1622 33.748 96.7012 33.341 97.3539 33.033C98.0139 32.7177 98.7949 32.56 99.6969 32.56C100.768 32.56 101.721 32.8093 102.557 33.308C103.393 33.7993 104.049 34.4887 104.526 35.376C105.003 36.2633 105.241 37.2863 105.241 38.445C105.241 39.2737 105.102 40.0437 104.823 40.755C104.552 41.4663 104.167 42.0897 103.668 42.625C103.169 43.1603 102.579 43.5783 101.897 43.879C101.215 44.1797 100.463 44.33 99.6419 44.33C98.9159 44.33 98.2595 44.209 97.6729 43.967C97.0935 43.725 96.5839 43.384 96.1439 42.944V48.62H92.9429ZM99.1029 41.547C99.6749 41.547 100.185 41.4223 100.632 41.173C101.087 40.9163 101.439 40.557 101.688 40.095C101.945 39.633 102.073 39.083 102.073 38.445C102.073 37.807 101.945 37.257 101.688 36.795C101.431 36.333 101.079 35.9773 100.632 35.728C100.185 35.4713 99.6749 35.343 99.1029 35.343C98.5382 35.343 98.0322 35.4713 97.5849 35.728C97.1375 35.9773 96.7855 36.333 96.5289 36.795C96.2722 37.257 96.1439 37.807 96.1439 38.445C96.1439 39.083 96.2685 39.633 96.5179 40.095C96.7745 40.557 97.1265 40.9163 97.5739 41.173C98.0212 41.4223 98.5309 41.547 99.1029 41.547ZM110.547 44.33C109.799 44.33 109.131 44.187 108.545 43.901C107.958 43.615 107.496 43.208 107.159 42.68C106.821 42.1447 106.653 41.5067 106.653 40.766C106.653 40.1353 106.81 39.5743 107.126 39.083C107.441 38.5917 107.918 38.1883 108.556 37.873C109.201 37.5503 110.015 37.334 110.998 37.224C111.988 37.1067 113.154 37.114 114.496 37.246L114.529 39.292C113.729 39.16 113.022 39.0977 112.406 39.105C111.797 39.1123 111.284 39.1747 110.866 39.292C110.455 39.4093 110.143 39.5817 109.931 39.809C109.718 40.029 109.612 40.2967 109.612 40.612C109.612 41.0447 109.773 41.3783 110.096 41.613C110.418 41.8403 110.855 41.954 111.405 41.954C111.881 41.954 112.31 41.8697 112.692 41.701C113.073 41.5323 113.377 41.2867 113.605 40.964C113.832 40.6413 113.946 40.249 113.946 39.787V37.125C113.946 36.6923 113.854 36.3147 113.671 35.992C113.495 35.662 113.216 35.409 112.835 35.233C112.453 35.0497 111.955 34.958 111.339 34.958C110.767 34.958 110.195 35.046 109.623 35.222C109.058 35.3907 108.541 35.651 108.072 36.003L107.225 33.759C107.936 33.3043 108.691 32.9743 109.491 32.769C110.29 32.5563 111.071 32.45 111.834 32.45C112.875 32.45 113.784 32.615 114.562 32.945C115.339 33.275 115.94 33.7847 116.366 34.474C116.798 35.156 117.015 36.025 117.015 37.081V44H114.221V42.779C113.854 43.2777 113.352 43.6627 112.714 43.934C112.076 44.198 111.353 44.33 110.547 44.33ZM125.206 44.33C124.032 44.33 122.984 44.0733 122.06 43.56C121.136 43.0467 120.406 42.3463 119.871 41.459C119.343 40.5717 119.079 39.567 119.079 38.445C119.079 37.6017 119.236 36.8243 119.552 36.113C119.867 35.3943 120.307 34.771 120.872 34.243C121.444 33.7077 122.111 33.2933 122.874 33C123.636 32.7067 124.461 32.56 125.349 32.56C126.163 32.56 126.914 32.67 127.604 32.89C128.3 33.11 128.931 33.44 129.496 33.88L128.044 36.278C127.692 35.9627 127.299 35.728 126.867 35.574C126.441 35.42 125.99 35.343 125.514 35.343C124.846 35.343 124.271 35.464 123.787 35.706C123.31 35.948 122.94 36.3 122.676 36.762C122.419 37.224 122.291 37.7813 122.291 38.434C122.291 39.4093 122.577 40.172 123.149 40.722C123.728 41.272 124.516 41.547 125.514 41.547C126.049 41.547 126.551 41.448 127.021 41.25C127.497 41.052 127.919 40.777 128.286 40.425L129.639 42.856C129.03 43.3107 128.337 43.67 127.56 43.934C126.782 44.198 125.998 44.33 125.206 44.33ZM136.454 44.33C135.266 44.33 134.328 43.9963 133.638 43.329C132.956 42.6543 132.615 41.6387 132.615 40.282V29.689H135.827V32.89H138.588V35.464H135.827V39.699C135.827 40.3517 135.963 40.81 136.234 41.074C136.506 41.338 136.869 41.47 137.323 41.47C137.558 41.47 137.785 41.4443 138.005 41.393C138.233 41.3343 138.442 41.2537 138.632 41.151L139.083 43.681C138.753 43.8643 138.357 44.0183 137.895 44.143C137.441 44.2677 136.96 44.33 136.454 44.33ZM130.36 35.464V32.89H132.934V35.464H130.36Z" fill="#3A77AD"/>
<path d="M56.965 22.33C55.3737 22.33 53.973 22.0037 52.763 21.351C51.553 20.691 50.6107 19.7633 49.936 18.568C49.2613 17.3653 48.924 15.9537 48.924 14.333C48.924 13.1523 49.122 12.0707 49.518 11.088C49.914 10.1053 50.475 9.25467 51.201 8.536C51.927 7.81 52.7813 7.25267 53.764 6.864C54.754 6.468 55.8357 6.27 57.009 6.27C58.2557 6.27 59.3117 6.42767 60.177 6.743C61.0423 7.05833 61.8197 7.502 62.509 8.074L60.859 10.747C60.4117 10.307 59.88 9.977 59.264 9.757C58.6553 9.537 57.977 9.427 57.229 9.427C56.4663 9.427 55.7807 9.54067 55.172 9.768C54.5707 9.99533 54.0573 10.3217 53.632 10.747C53.214 11.165 52.8913 11.6747 52.664 12.276C52.444 12.87 52.334 13.541 52.334 14.289C52.334 15.3157 52.532 16.192 52.928 16.918C53.3313 17.6367 53.9033 18.1903 54.644 18.579C55.392 18.9677 56.283 19.162 57.317 19.162C58.0357 19.162 58.7397 19.052 59.429 18.832C60.1257 18.612 60.782 18.26 61.398 17.776L62.894 20.515C62.168 21.0723 61.3173 21.516 60.342 21.846C59.3667 22.1687 58.241 22.33 56.965 22.33ZM64.9233 22V6.16H68.1353V13.31L67.4643 12.529C67.9483 11.9057 68.5277 11.4217 69.2023 11.077C69.877 10.7323 70.6067 10.56 71.3913 10.56C72.4253 10.56 73.2833 10.7653 73.9653 11.176C74.6547 11.5867 75.168 12.122 75.5053 12.782C75.85 13.442 76.0223 14.146 76.0223 14.894V22H72.8103V15.807C72.8103 15.1177 72.605 14.5603 72.1943 14.135C71.7837 13.7023 71.219 13.4823 70.5003 13.475C70.0163 13.475 69.5947 13.5777 69.2353 13.783C68.8833 13.981 68.612 14.2707 68.4213 14.652C68.2307 15.026 68.1353 15.466 68.1353 15.972V22H64.9233ZM82.1406 22.33C81.3926 22.33 80.7252 22.187 80.1386 21.901C79.5519 21.615 79.0899 21.208 78.7526 20.68C78.4152 20.1447 78.2466 19.5067 78.2466 18.766C78.2466 18.1353 78.4042 17.5743 78.7196 17.083C79.0349 16.5917 79.5116 16.1883 80.1496 15.873C80.7949 15.5503 81.6089 15.334 82.5916 15.224C83.5816 15.1067 84.7476 15.114 86.0896 15.246L86.1226 17.292C85.3232 17.16 84.6156 17.0977 83.9996 17.105C83.3909 17.1123 82.8776 17.1747 82.4596 17.292C82.0489 17.4093 81.7372 17.5817 81.5246 17.809C81.3119 18.029 81.2056 18.2967 81.2056 18.612C81.2056 19.0447 81.3669 19.3783 81.6896 19.613C82.0122 19.8403 82.4486 19.954 82.9986 19.954C83.4752 19.954 83.9042 19.8697 84.2856 19.701C84.6669 19.5323 84.9712 19.2867 85.1986 18.964C85.4259 18.6413 85.5396 18.249 85.5396 17.787V15.125C85.5396 14.6923 85.4479 14.3147 85.2646 13.992C85.0886 13.662 84.8099 13.409 84.4286 13.233C84.0472 13.0497 83.5486 12.958 82.9326 12.958C82.3606 12.958 81.7886 13.046 81.2166 13.222C80.6519 13.3907 80.1349 13.651 79.6656 14.003L78.8186 11.759C79.5299 11.3043 80.2852 10.9743 81.0846 10.769C81.8839 10.5563 82.6649 10.45 83.4276 10.45C84.4689 10.45 85.3782 10.615 86.1556 10.945C86.9329 11.275 87.5342 11.7847 87.9596 12.474C88.3922 13.156 88.6086 14.025 88.6086 15.081V22H85.8146V20.779C85.4479 21.2777 84.9456 21.6627 84.3076 21.934C83.6696 22.198 82.9472 22.33 82.1406 22.33ZM91.5854 22V10.89H94.7974V12.265C95.1568 11.649 95.6188 11.209 96.1834 10.945C96.7481 10.681 97.3641 10.549 98.0314 10.549C98.2661 10.549 98.4824 10.5637 98.6804 10.593C98.8784 10.615 99.0728 10.6443 99.2634 10.681L98.8674 13.992C98.6328 13.904 98.3834 13.838 98.1194 13.794C97.8554 13.7427 97.5951 13.717 97.3384 13.717C96.5978 13.717 95.9891 13.9333 95.5124 14.366C95.0358 14.7987 94.7974 15.4147 94.7974 16.214V22H91.5854ZM101.103 22V10.89H104.315V22H101.103ZM102.709 9.13C102.174 9.13 101.712 8.965 101.323 8.635C100.934 8.29767 100.74 7.85033 100.74 7.293C100.74 6.72833 100.934 6.281 101.323 5.951C101.712 5.61367 102.174 5.445 102.709 5.445C103.244 5.445 103.706 5.61367 104.095 5.951C104.484 6.281 104.678 6.72833 104.678 7.293C104.678 7.85033 104.484 8.29767 104.095 8.635C103.706 8.965 103.244 9.13 102.709 9.13ZM112.259 22.33C111.071 22.33 110.132 21.9963 109.443 21.329C108.761 20.6543 108.42 19.6387 108.42 18.282V7.689H111.632V10.89H114.393V13.464H111.632V17.699C111.632 18.3517 111.768 18.81 112.039 19.074C112.31 19.338 112.673 19.47 113.128 19.47C113.363 19.47 113.59 19.4443 113.81 19.393C114.037 19.3343 114.246 19.2537 114.437 19.151L114.888 21.681C114.558 21.8643 114.162 22.0183 113.7 22.143C113.245 22.2677 112.765 22.33 112.259 22.33ZM106.165 13.464V10.89H108.739V13.464H106.165ZM118.592 26.917C118.123 26.917 117.661 26.8693 117.206 26.774C116.752 26.6787 116.323 26.521 115.919 26.301L116.612 23.595C116.847 23.727 117.104 23.8297 117.382 23.903C117.668 23.9763 117.932 24.013 118.174 24.013C118.614 24.013 118.977 23.9177 119.263 23.727C119.549 23.5363 119.762 23.2247 119.901 22.792L120.132 22.088L115.798 10.89H119.285L121.947 18.832L124.532 10.89H127.931L123.267 23.265C122.901 24.189 122.479 24.915 122.002 25.443C121.526 25.9783 121.001 26.356 120.429 26.576C119.857 26.8033 119.245 26.917 118.592 26.917Z" fill="#202020"/>
</svg>
